<svg xmlns="http://www.w3.org/2000/svg" width="220" height="171" viewBox="0 0 220 171">
  <g id="Artboard" fill="none" fill-rule="evenodd" stroke="none" stroke-width="1">
    <path id="Fill-1" fill="#000" d="M138.19 20.3c1.11-1.94 6.88-1.15 10 .79-3.17-8.07-12.83-4.1-17.42-4.48-4.59-.38-7.42-16.61-7.42-16.61s-6.26 5.19-9.03 8.8c-2.76 3.6-5.87 13.04-8.91 16.09-21.33-4.1-44.63 20.53-55.51-1.66-2.65 5.59 7.15 13.78 9 14.55-8.08 1.25-14.22-.29-19.8-5.48 1.52 5.7 10.02 9.48 10.02 9.48-10.44 1.68-29.1-.25-27.59-16.05-5 12.5 5.44 27.18 31.44 25.1.31 3.06-11.26 7.93-16.82 8.61 3.46 1.87 11.02 2.16 11.02 2.16C42.7 69.22 21.01 96.02 4 95.78c5.43 3 15.18 4.22 15.18 4.22 3.93 4.16-4.52 15.46-19.17 15.46 4.64 2.7 17.73.77 17.73.77-.24 5.1-2.47 16.17-12.2 20.32l1.12.71c6.22.46 9.9 2.02 9.9 2.02l-3.5 1.88c15.77 9.3 35.55 18.61 58.46 24.57a136.17 136.17 0 0 0 60.46 1.77c1.06-21.24-5.1-50.22-7.03-60.8-.98-5.37 4.23-8.98 11.94-5.5 7.72 3.47 40.36 11.06 49.97 15.52 9.6 4.46 7.46-3.05 17.18-.91 3.3.73 11.5.12 11-2.67-.51-2.79-2.84-5.83 2-7.37 4.85-1.55-.3-11.45.6-14.5.92-3.05-4.32-3.65-7.2-6.01-2.87-2.36-39.13-28.47-40.54-33.53-1.53-5.53-21.95-21.29-24.5-24.6-2.13-2.75-6.48-5.11-7.22-6.29l.03-.55h-.01c-.05.1-.1.2-.13.3.01.07.05.16.1.25l-.04.91a1.96 1.96 0 0 1-.06-1.17c-.01-.11.03-.2.13-.29z"/>
  </g>
</svg>
